<svg width="239" height="57" viewBox="0 0 239 57" fill="none" xmlns="http://www.w3.org/2000/svg">
<g clip-path="url(#clip0_2602_16)">
<path d="M72.4878 44.3245C70.3423 46.5618 67.3246 47.9551 63.9752 47.9551C58.8053 47.9551 54.418 44.6323 52.8263 40.0122H83.7728C84.0116 38.7745 84.1409 37.5003 84.1409 36.1931C84.1409 25.0764 75.1109 16.0679 63.9752 16.0679C52.8395 16.0679 43.8096 25.0797 43.8096 36.1931C43.8096 47.3064 52.8395 56.3182 63.9752 56.3182C72.2126 56.3182 79.2926 51.3871 82.4231 44.3245H72.4878ZM63.9785 24.431C68.8732 24.431 73.0715 27.4096 74.8523 31.6491H53.1048C54.8856 27.4096 59.0839 24.431 63.9785 24.431Z" fill="white"/>
<path d="M72.4878 44.3245C70.3423 46.5618 67.3246 47.9551 63.9752 47.9551C58.8053 47.9551 54.418 44.6323 52.8263 40.0122H83.7728C84.0116 38.7745 84.1409 37.5003 84.1409 36.1931C84.1409 25.0764 75.1109 16.0679 63.9752 16.0679C52.8395 16.0679 43.8096 25.0797 43.8096 36.1931C43.8096 47.3064 52.8395 56.3182 63.9752 56.3182C72.2126 56.3182 79.2926 51.3871 82.4231 44.3245H72.4878ZM63.9785 24.431C68.8732 24.431 73.0715 27.4096 74.8523 31.6491H53.1048C54.8856 27.4096 59.0839 24.431 63.9785 24.431Z" fill="white"/>
<path d="M139.704 56.3181V36.1599C139.704 29.6633 144.98 24.3978 151.489 24.3978C157.999 24.3978 163.275 29.6633 163.275 36.1599V56.3181H171.655V36.1599C171.655 25.0432 162.625 16.0347 151.489 16.0347C140.354 16.0347 131.324 25.0465 131.324 36.1599V56.3181H139.704Z" fill="white"/>
<path d="M95.94 56.3181V36.1599C95.94 29.6633 101.216 24.3978 107.726 24.3978C114.235 24.3978 119.511 29.6633 119.511 36.1599V56.3181H127.891V36.1599C127.891 25.0432 118.861 16.0347 107.726 16.0347C96.59 16.0347 87.5601 25.0465 87.5601 36.1599V56.3181H95.94Z" fill="white"/>
<path d="M239 16.0347C227.861 16.0347 218.834 25.0465 218.834 36.1599V56.3181H227.214V36.1599C227.214 29.6633 232.49 24.3978 239 24.3978V16.0347Z" fill="white"/>
<path d="M203.759 44.3245C201.613 46.5618 198.596 47.9551 195.246 47.9551C190.076 47.9551 185.689 44.6323 184.097 40.0122H215.044C215.283 38.7745 215.412 37.5003 215.412 36.1931C215.412 25.0764 206.382 16.0679 195.246 16.0679C184.111 16.0679 175.081 25.0797 175.081 36.1931C175.081 47.3064 184.111 56.3182 195.246 56.3182C203.484 56.3182 210.564 51.3871 213.694 44.3245H203.759ZM195.25 24.431C200.144 24.431 204.342 27.4096 206.123 31.6491H184.376C186.157 27.4096 190.355 24.431 195.25 24.431Z" fill="white"/>
<path d="M18.5538 56.3447V39.1286C18.5538 39.1286 18.5372 39.1054 18.5239 39.112L3.58789 47.7201C7.03008 52.6711 12.5482 55.8516 18.5538 56.348V56.3447Z" fill="#E51F48"/>
<path d="M20.2088 16.0677C15.8314 16.0677 11.7824 17.461 8.47283 19.824V0H0V36.3683C0.019897 39.3502 0.689764 42.1765 1.87364 44.7149L9.25876 40.4589C8.76465 39.188 8.48609 37.8079 8.46951 36.365V36.0969C8.54578 29.6897 13.7688 24.5202 20.2055 24.5202C26.6421 24.5202 31.9447 29.7658 31.9447 36.2359C31.9447 42.0938 27.637 46.9488 22.0094 47.8159V56.3214C32.3228 55.408 40.4142 46.7668 40.4142 36.2359C40.4142 25.0961 31.3677 16.0677 20.2055 16.0677H20.2088Z" fill="white"/>
</g>
<defs>
<clipPath id="clip0_2602_16">
<rect width="239" height="56.3446" fill="white"/>
</clipPath>
</defs>
</svg>
